<?xml version="1.0" encoding="UTF-8"?>
<!DOCTYPE svg PUBLIC "-//W3C//DTD SVG 1.1//EN" "http://www.w3.org/Graphics/SVG/1.1/DTD/svg11.dtd">
<!-- Creator: CorelDRAW 2020 (64-Bit) -->
<svg xmlns="http://www.w3.org/2000/svg" xml:space="preserve" width="7418px" height="1175px" version="1.1" style="shape-rendering:geometricPrecision; text-rendering:geometricPrecision; image-rendering:optimizeQuality; fill-rule:evenodd; clip-rule:evenodd"
viewBox="0 0 2047.6 324.21"
 xmlns:xlink="http://www.w3.org/1999/xlink"
 xmlns:xodm="http://www.corel.com/coreldraw/odm/2003">
 <defs>
  <style type="text/css">
   <![CDATA[
    .fil0 {fill:#005F6B;fill-rule:nonzero}
   ]]>
  </style>
 </defs>
 <g id="Layer_x0020_1">
  <metadata id="CorelCorpID_0Corel-Layer"/>
  <g id="_2583433915216">
   <path class="fil0" d="M937.72 0l-114.45 198.24c-12.26,21.22 -42.89,21.22 -55.14,0l-106.01 -183.62c-5.23,-9.04 -14.88,-14.62 -25.33,-14.62l-94.54 0 174.41 302.08c15.75,27.28 55.12,27.28 70.87,0l174.41 -302.08 -24.22 0z"/>
   <path class="fil0" d="M281.02 198.24c-12.26,21.22 -42.89,21.22 -55.14,0l-106.01 -183.62c-5.23,-9.04 -14.88,-14.62 -25.33,-14.62l-94.54 0 174.41 302.08c15.75,27.28 55.12,27.28 70.87,0l174.41 -302.08 -24.22 0 -114.45 198.24z"/>
   <path class="fil0" d="M256.5 105.06c29.01,0 52.53,-23.52 52.53,-52.53 0,-29.01 -23.52,-52.53 -52.53,-52.53 -29.01,0 -52.53,23.52 -52.53,52.53 0,29.01 23.52,52.53 52.53,52.53z"/>
   <polygon class="fil0" points="429.74,322.54 530.52,322.54 530.52,0 429.74,0 "/>
   <path class="fil0" d="M1256.55 161.27c-1.86,-90.15 -76.13,-162.51 -167.02,-161.25 -88.97,1.23 -161.47,74.01 -162.39,162.98 -0.03,3 0.02,5.99 0.15,8.95 3.67,85.19 74.78,151.92 160.05,151.92l48.67 0c0.2,-0.21 0.32,-0.33 0.52,-0.53l0 -93.1 -43.51 0c-36.34,0 -66.62,-29.09 -66.66,-65.42 -0.05,-38.88 33.93,-69.97 73.74,-65.09 32.69,4.01 57.21,32.26 57.27,64.89l0 0.07c0,1.04 -0.03,2.09 -0.07,3.14 -0.01,0.1 -0.01,0.2 -0.02,0.31l0.09 0 0 2.79c0,0.02 0,0.05 0,0.07l0 53.64c0,54.8 44.42,99.23 99.23,99.23l0 -162.6 -0.05 0z"/>
   <path class="fil0" d="M1394.8 83.58c24.27,0 42.19,-16.68 42.19,-39.45 0,-22.77 -17.92,-39.45 -42.19,-39.45 -24.27,0 -42.15,16.68 -42.15,39.45 0,22.77 17.88,39.45 42.15,39.45zm0 -17.76c-11.49,0 -20.46,-8.57 -20.46,-21.69 0,-13.12 8.97,-21.66 20.46,-21.66 11.49,0 20.5,8.54 20.5,21.66 0,13.12 -9.01,21.69 -20.5,21.69zm173.26 16.25l-0.21 -75.86 -17.7 0 -25.99 43.79 -26.67 -43.79 -17.67 0 0 75.86 19.85 0 0 -39.14 19.39 31.68 9.52 0 19.51 -32.76 0.25 40.22 19.72 0zm71.99 0l22.31 0 -33.58 -75.86 -21.14 0 -33.49 75.86 21.87 0 5.96 -14.74 32.08 0 5.99 14.74zm-31.77 -30.57l9.74 -24.27 9.77 24.27 -19.51 0zm60.16 30.57l21.45 0 0 -75.86 -21.45 0 0 75.86zm75.01 1.51c24.27,0 42.18,-16.68 42.18,-39.45 0,-22.77 -17.91,-39.45 -42.18,-39.45 -24.28,0 -42.16,16.68 -42.16,39.45 0,22.77 17.88,39.45 42.16,39.45zm0 -17.76c-11.5,0 -20.47,-8.57 -20.47,-21.69 0,-13.12 8.97,-21.66 20.47,-21.66 11.49,0 20.49,8.54 20.49,21.66 0,13.12 -9,21.69 -20.49,21.69zm100.38 16.25l22.98 0 -16.35 -23.84c9.44,-4.55 14.84,-12.78 14.84,-23.96 0,-17.33 -12.99,-28.06 -33.7,-28.06l-34.69 0 0 75.86 21.44 0 0 -20.15 11.71 0 13.77 20.15zm-0.22 -47.8c0,6.94 -4.42,11.06 -13.3,11.06l-11.96 0 0 -22.22 11.96 0c8.88,0 13.3,4.12 13.3,11.16z"/>
   <path class="fil0" d="M1391.24 126.53l-34.69 0 0 75.86 21.44 0 0 -19.85 13.25 0c20.71,0 33.7,-10.72 33.7,-27.96 0,-17.33 -12.99,-28.05 -33.7,-28.05zm-1.29 39.11l-11.96 0 0 -22.21 11.96 0c8.88,0 13.3,4.12 13.3,11.15 0,6.95 -4.42,11.06 -13.3,11.06zm84.74 38.26c24.27,0 42.18,-16.69 42.18,-39.46 0,-22.76 -17.91,-39.45 -42.18,-39.45 -24.28,0 -42.16,16.69 -42.16,39.45 0,22.77 17.88,39.46 42.16,39.46zm0 -17.76c-11.49,0 -20.47,-8.58 -20.47,-21.7 0,-13.12 8.98,-21.66 20.47,-21.66 11.49,0 20.49,8.54 20.49,21.66 0,13.12 -9,21.7 -20.49,21.7zm100.38 16.25l22.98 0 -16.34 -23.84c9.43,-4.55 14.84,-12.78 14.84,-23.97 0,-17.33 -13,-28.05 -33.71,-28.05l-34.69 0 0 75.86 21.45 0 0 -20.16 11.7 0 13.77 20.16zm-0.22 -47.81c0,6.95 -4.42,11.06 -13.3,11.06l-11.95 0 0 -22.21 11.95 0c8.88,0 13.3,4.12 13.3,11.15zm48.6 47.81l21.45 0 0 -58.87 23.2 0 0 -16.99 -67.97 0 0 16.99 23.32 0 0 58.87zm105.69 0l22.3 0 -33.58 -75.86 -21.14 0 -33.49 75.86 21.87 0 5.97 -14.75 32.07 0 6 14.75zm-31.78 -30.57l9.74 -24.27 9.78 24.27 -19.52 0zm60.17 30.57l57.67 0 0 -17.02 -36.23 0 0 -58.84 -21.44 0 0 75.86zm122.16 -48.24l-5.1 0 0.98 -11.06 30.58 0 0 -16.56 -48.34 0 -3.81 44.31 20.59 0c11.61,0 14.75,3.04 14.75,7.71 0,5.1 -4.89,8.02 -12.14,8.02 -7.25,0 -14.84,-2.18 -21.01,-6.3l-7.72 16.16c7.72,4.89 18.87,7.47 29.38,7.47 22.89,0 33.06,-12.36 33.06,-25.91 0,-13.42 -8.79,-23.84 -31.22,-23.84zm70.89 49.75c19.29,0 33.39,-14.41 33.39,-39.46 0,-25.04 -14.1,-39.45 -33.39,-39.45 -19.39,0 -33.5,14.41 -33.5,39.45 0,25.05 14.11,39.46 33.5,39.46zm0 -17.55c-6.95,0 -11.93,-5.96 -11.93,-21.91 0,-15.91 4.98,-21.87 11.93,-21.87 6.82,0 11.82,5.96 11.82,21.87 0,15.95 -5,21.91 -11.82,21.91zm97.02 -29.8l-18.31 0 0 -17.88 -16.72 0 0 17.88 -18.4 0 0 15.82 18.4 0 0 17.88 16.72 0 0 -17.88 18.31 0 0 -15.82z"/>
   <path class="fil0" d="M1356.55 322.71l35.88 0c25.14,0 42.38,-14.63 42.38,-37.95 0,-23.29 -17.24,-37.91 -42.38,-37.91l-35.88 0 0 75.86zm21.44 -17.12l0 -41.63 13.55 0c12.91,0 21.57,7.68 21.57,20.8 0,13.12 -8.66,20.83 -21.57,20.83l-13.55 0zm106.35 18.62c24.27,0 42.18,-16.68 42.18,-39.45 0,-22.77 -17.91,-39.45 -42.18,-39.45 -24.28,0 -42.16,16.68 -42.16,39.45 0,22.77 17.88,39.45 42.16,39.45zm0 -17.76c-11.5,0 -20.47,-8.57 -20.47,-21.69 0,-13.12 8.97,-21.66 20.47,-21.66 11.49,0 20.49,8.54 20.49,21.66 0,13.12 -9,21.69 -20.49,21.69zm143.33 -23.32c6.51,-3.35 10.2,-9.21 10.2,-16.47 0,-11.7 -9.77,-19.81 -29.71,-19.81l-38.81 0 0 75.86 40.96 0c20.4,0 31.22,-7.68 31.22,-20.8 0,-9.22 -5.29,-15.74 -13.86,-18.78zm-22.34 -20.8c7.16,0 10.85,2.49 10.85,7.25 0,4.89 -3.69,7.38 -10.85,7.38l-14.75 0 0 -14.63 14.75 0zm3.26 44.89l-18.01 0 0 -15.39 18.01 0c7.37,0 11.28,2.49 11.28,7.68 0,5.19 -3.91,7.71 -11.28,7.71zm91.04 15.49l22.98 0 -16.34 -23.85c9.43,-4.54 14.84,-12.78 14.84,-23.96 0,-17.33 -13,-28.05 -33.71,-28.05l-34.69 0 0 75.86 21.45 0 0 -20.16 11.71 0 13.76 20.16zm-0.21 -47.81c0,6.94 -4.43,11.06 -13.31,11.06l-11.95 0 0 -22.22 11.95 0c8.88,0 13.31,4.12 13.31,11.16zm90.33 47.81l22.31 0 -33.59 -75.86 -21.14 0 -33.49 75.86 21.88 0 5.96 -14.75 32.08 0 5.99 14.75zm-31.77 -30.57l9.74 -24.28 9.77 24.28 -19.51 0zm86.83 32.07c22.55,0 33.58,-11.27 33.58,-24.49 0,-27.96 -43.01,-19.29 -43.01,-30.87 0,-3.81 3.25,-6.86 12.26,-6.86 6.6,0 13.76,1.97 21.01,5.87l6.61 -15.94c-7.47,-4.34 -17.67,-6.61 -27.53,-6.61 -22.55,0 -33.62,11.06 -33.62,24.61 0,28.18 43.14,19.39 43.14,31.43 0,3.69 -3.44,6.18 -12.35,6.18 -8.76,0 -18.31,-3.04 -25.04,-7.47l-7.04 15.83c7.16,4.97 19.51,8.32 31.99,8.32zm43.45 -1.5l21.44 0 0 -75.86 -21.44 0 0 75.86zm36.74 0l57.68 0 0 -17.02 -36.23 0 0 -58.84 -21.45 0 0 75.86z"/>
  </g>
 </g>
</svg>
